<svg width="21" height="19" viewBox="0 0 21 19" fill="none" xmlns="http://www.w3.org/2000/svg">
<path d="M8.14844 2.35156C8.14844 1.69531 8.3763 1.13932 8.83203 0.683594C9.28776 0.227865 9.84375 0 10.5 0C11.1562 0 11.7122 0.227865 12.168 0.683594C12.6237 1.13932 12.8516 1.69531 12.8516 2.35156C12.8516 3.00781 12.6237 3.5638 12.168 4.01953C11.7122 4.47526 11.1562 4.70312 10.5 4.70312C9.84375 4.70312 9.28776 4.47526 8.83203 4.01953C8.3763 3.5638 8.14844 3.00781 8.14844 2.35156ZM21 14V11.7031C19.6875 11.7031 18.4844 11.4297 17.3906 10.8828C16.2969 10.3359 15.3307 9.55208 14.4922 8.53125L12.9062 6.67188C12.4323 6.125 11.8307 5.85156 11.1016 5.85156H9.89844C9.16927 5.85156 8.56771 6.125 8.09375 6.67188L6.5625 8.53125C5.6875 9.55208 4.70312 10.3359 3.60938 10.8828C2.51562 11.4297 1.3125 11.7031 0 11.7031V14C1.60417 14 3.09896 13.6719 4.48438 13.0156C5.86979 12.3594 7.09115 11.4297 8.14844 10.2266V12.8516L3.66406 14.6562C3.26302 14.8021 2.94401 15.0573 2.70703 15.4219C2.47005 15.7865 2.35156 16.1693 2.35156 16.5703C2.35156 17.1536 2.55208 17.6549 2.95312 18.0742C3.35417 18.4935 3.84635 18.7031 4.42969 18.7031H7V18.1016C7 17.2995 7.28255 16.6159 7.84766 16.0508C8.41276 15.4857 9.09635 15.2031 9.89844 15.2031H13.3984C13.5807 15.2031 13.7266 15.2578 13.8359 15.3672C13.9453 15.4766 14 15.6042 14 15.75C14 15.9323 13.9453 16.0781 13.8359 16.1875C13.7266 16.2969 13.5807 16.3516 13.3984 16.3516H9.89844C9.42448 16.3516 9.01432 16.5247 8.66797 16.8711C8.32161 17.2174 8.14844 17.6276 8.14844 18.1016V18.7031H16.5703C17.1536 18.7031 17.6458 18.4935 18.0469 18.0742C18.4479 17.6549 18.6484 17.1536 18.6484 16.5703C18.6484 16.1693 18.5299 15.7865 18.293 15.4219C18.056 15.0573 17.737 14.8021 17.3359 14.6562L12.8516 12.8516V10.2266C13.9089 11.4297 15.1302 12.3594 16.5156 13.0156C17.901 13.6719 19.3958 14 21 14Z" fill="#FF4D4D"/>
</svg>
