<svg width="32" height="37" viewBox="0 0 32 37" fill="none" xmlns="http://www.w3.org/2000/svg">
<path d="M16 29.3524C14.5386 29.3524 13.2037 29.0152 11.9952 28.3407C10.7868 27.6662 9.81719 26.7388 9.08649 25.5584C8.91787 25.2774 8.91085 24.9963 9.06542 24.7153C9.21999 24.4342 9.4659 24.2937 9.80314 24.2937H22.1969C22.5061 24.2937 22.7449 24.4342 22.9136 24.7153C23.0822 24.9963 23.0822 25.2774 22.9136 25.5584C22.1829 26.7388 21.2133 27.6662 20.0048 28.3407C18.7964 29.0152 17.4614 29.3524 16 29.3524ZM11.7845 21.7644C11.1943 21.7644 10.6954 21.5606 10.2879 21.1531C9.88043 20.7456 9.67667 20.2468 9.67667 19.6566C9.67667 19.0664 9.88043 18.5676 10.2879 18.1601C10.6954 17.7526 11.1943 17.5488 11.7845 17.5488C12.3746 17.5488 12.8735 17.7526 13.281 18.1601C13.6885 18.5676 13.8922 19.0664 13.8922 19.6566C13.8922 20.2468 13.6885 20.7456 13.281 21.1531C12.8735 21.5606 12.3746 21.7644 11.7845 21.7644ZM20.2156 21.7644C19.6254 21.7644 19.1266 21.5606 18.7191 21.1531C18.3116 20.7456 18.1078 20.2468 18.1078 19.6566C18.1078 19.0664 18.3116 18.5676 18.7191 18.1601C19.1266 17.7526 19.6254 17.5488 20.2156 17.5488C20.8058 17.5488 21.3046 17.7526 21.7121 18.1601C22.1196 18.5676 22.3234 19.0664 22.3234 19.6566C22.3234 20.2468 22.1196 20.7456 21.7121 21.1531C21.3046 21.5606 20.8058 21.7644 20.2156 21.7644ZM16 36.0973C11.8126 36.0973 8.25041 34.6429 5.31356 31.7342C2.37671 28.8255 0.880182 25.2774 0.823975 21.0899L4.23859 19.8252C4.21048 20.0219 4.19643 20.2046 4.19643 20.3732V20.9213C4.19643 24.2094 5.34166 26.9987 7.63212 29.2892C9.92258 31.5796 12.7119 32.7249 16 32.7249C19.2882 32.7249 22.0775 31.5796 24.3679 29.2892C26.6584 26.9987 27.8036 24.2094 27.8036 20.9213C27.8036 20.4716 27.7826 20.029 27.7404 19.5934C27.6982 19.1578 27.621 18.7292 27.5085 18.3076C25.8223 18.1109 24.2274 17.6823 22.7239 17.0219C21.2203 16.3614 19.8362 15.4972 18.5715 14.4293L27.5507 11.0568C28.703 12.4058 29.5952 13.9164 30.2276 15.5886C30.8599 17.2607 31.1761 19.0383 31.1761 20.9213C31.1761 23.029 30.7756 25.0033 29.9746 26.8441C29.1737 28.6849 28.0917 30.2869 26.7287 31.6499C25.3656 33.0129 23.7637 34.0949 21.9229 34.8959C20.0821 35.6968 18.1078 36.0973 16 36.0973ZM1.49847 18.1811C1.30174 17.6191 1.14014 17.0429 1.01368 16.4528C0.887208 15.8626 0.823975 15.2583 0.823975 14.6401C0.823975 12.0826 1.54062 9.79216 2.97392 7.76868C4.40721 5.74521 6.21991 4.1714 8.412 3.04724C8.35579 2.93483 8.32066 2.82944 8.30661 2.73108C8.29256 2.63271 8.28554 2.51327 8.28554 2.37275C8.28554 1.89499 8.44713 1.49451 8.77033 1.17131C9.09352 0.84812 9.494 0.686523 9.97176 0.686523C10.3652 0.686523 10.7025 0.798939 10.9835 1.02377C11.2645 1.2486 11.4613 1.52964 11.5737 1.86688C12.192 1.72636 12.8032 1.61395 13.4075 1.52964C14.0117 1.44533 14.637 1.40317 15.2834 1.40317C17.1663 1.40317 18.958 1.76852 20.6582 2.49922C22.3585 3.22992 23.855 4.28381 25.1478 5.6609L28.7311 4.31191C29.1807 4.14329 29.6093 4.15734 30.0168 4.35407C30.4243 4.5508 30.7124 4.87399 30.881 5.32365C31.0496 5.77331 31.0426 6.2019 30.8599 6.6094C30.6772 7.01691 30.3611 7.30497 29.9114 7.47359L1.49847 18.1811Z" fill="#3B832F"/>
</svg>
